<svg width="152" height="48" viewBox="0 0 152 48" fill="none" xmlns="http://www.w3.org/2000/svg">
<path d="M0.175 47V9.8H5.875L6.25 16.475C7.45 14.125 9.175 12.275 11.425 10.925C13.675 9.575 16.225 8.9 19.075 8.9C23.475 8.9 26.975 10.25 29.575 12.95C32.225 15.6 33.55 19.7 33.55 25.25V47H27.25V25.925C27.25 18.175 24.05 14.3 17.65 14.3C14.45 14.3 11.775 15.475 9.625 17.825C7.525 20.125 6.475 23.425 6.475 27.725V47H0.175ZM63.0199 47.9C59.4699 47.9 56.3199 47.1 53.5699 45.5C50.8199 43.85 48.6449 41.575 47.0449 38.675C45.4949 35.775 44.7199 32.35 44.7199 28.4C44.7199 24.5 45.4949 21.1 47.0449 18.2C48.5949 15.25 50.7449 12.975 53.4949 11.375C56.2949 9.725 59.5199 8.9 63.1699 8.9C66.7699 8.9 69.8699 9.725 72.4699 11.375C75.1199 12.975 77.1449 15.1 78.5449 17.75C79.9449 20.4 80.6449 23.25 80.6449 26.3C80.6449 26.85 80.6199 27.4 80.5699 27.95C80.5699 28.5 80.5699 29.125 80.5699 29.825H50.9449C51.0949 32.675 51.7449 35.05 52.8949 36.95C54.0949 38.8 55.5699 40.2 57.3199 41.15C59.1199 42.1 61.0199 42.575 63.0199 42.575C65.6199 42.575 67.7949 41.975 69.5449 40.775C71.2949 39.575 72.5699 37.95 73.3699 35.9H79.5949C78.5949 39.35 76.6699 42.225 73.8199 44.525C71.0199 46.775 67.4199 47.9 63.0199 47.9ZM63.0199 14.225C60.0199 14.225 57.3449 15.15 54.9949 17C52.6949 18.8 51.3699 21.45 51.0199 24.95H74.4199C74.2699 21.6 73.1199 18.975 70.9699 17.075C68.8199 15.175 66.1699 14.225 63.0199 14.225ZM86.6873 47L99.5873 28.4L86.6873 9.8H93.5123L103.937 25.175L114.437 9.8H121.187L108.287 28.4L121.187 47H114.437L103.937 31.625L93.5123 47H86.6873ZM145.691 47C142.291 47 139.616 46.175 137.666 44.525C135.716 42.875 134.741 39.9 134.741 35.6V15.125H128.291V9.8H134.741L135.566 0.874999H141.041V9.8H151.991V15.125H141.041V35.6C141.041 37.95 141.516 39.55 142.466 40.4C143.416 41.2 145.091 41.6 147.491 41.6H151.391V47H145.691Z" fill="white"/>
</svg>
